PathFileType	4	(X/Y/Z)	OpenSim_Sub07_CSBaseline_Magnet.trc
DataRate	CameraRate	NumFrames	NumMarkers	Units	OrigDataRate	OrigDataStartFrame	OrigNumFrames
100	100	40	8	m	100	1948	7788
Frame#	Time	torso_imu_offset_imu	pelvis_imu_offset_imu	tibia_r_imu_offset_imu	femur_r_imu_offset_imu	tibia_l_imu_offset_imu	femur_l_imu_offset_imu	toes_r_imu_offset_imu	toes_l_imu_offset_imu
				X1	Y1	Z1	X2	Y2	Z2	X3	Y3	Z3	X4	Y4	Z4	X5	Y5	Z5	X6	Y6	Z6	X7	Y7	Z7	X8		Y8	Z8	

1948	19.47000000	0.93221134	0.19944944	0.01403735	-0.72165651	0.19815364	-0.58718491	-0.64560433	-0.48270009	0.15732234	-0.83519156	-0.19772844	-0.03654322	-0.24734031	0.80413932	0.04522975	-0.63027072	-0.20644835	0.15969695	-0.65951011	-0.29198066	-0.34146336	-0.77650531	-0.11037166	0.28459999
1949	19.48000000	0.93408264	0.19975978	0.01891066	-0.72524748	0.19453703	-0.58717411	-0.64303866	-0.49443052	0.15155643	-0.83943802	-0.20313553	-0.03852413	-0.22868934	0.80861561	0.02728163	-0.64355354	-0.21499928	0.14826136	-0.65843055	-0.28533489	-0.34319745	-0.75792196	-0.09498194	0.32069358
1950	19.49000000	0.93207758	0.19645655	0.02212295	-0.72599262	0.19403768	-0.58938093	-0.64589720	-0.50177344	0.15423572	-0.83983540	-0.21609916	-0.03653048	-0.20457525	0.81584370	0.00446573	-0.65112290	-0.21941028	0.13722626	-0.65295211	-0.28809522	-0.33887857	-0.74218052	-0.08184874	0.36196668
1951	19.50000000	0.93641844	0.19285085	0.02198038	-0.72277129	0.18942211	-0.58861461	-0.64534030	-0.50776161	0.14430793	-0.83386273	-0.22605406	-0.03324720	-0.18453170	0.82206264	-0.03730656	-0.64811581	-0.22011114	0.12634519	-0.65274879	-0.28930587	-0.33491223	-0.72688666	-0.06136488	0.39398959
1952	19.51000000	0.93801257	0.19047721	0.02171644	-0.72731149	0.18966151	-0.58951227	-0.63407410	-0.51471211	0.14326292	-0.83470110	-0.23600536	-0.02588629	-0.17668162	0.82527382	-0.06429275	-0.65959425	-0.22889515	0.11832097	-0.65600456	-0.28837230	-0.33166810	-0.71050148	-0.04355352	0.42507935
1953	19.52000000	0.93457332	0.18984068	0.02362021	-0.73379681	0.18883615	-0.59169899	-0.62777814	-0.51791165	0.14952628	-0.82936629	-0.24449414	-0.02879507	-0.16584448	0.82007733	-0.08870295	-0.66793763	-0.23560035	0.11150445	-0.65052827	-0.29526658	-0.32467497	-0.68544390	-0.02754819	0.45351711
1954	19.53000000	0.93727261	0.19070443	0.02574969	-0.72763480	0.18068447	-0.59011727	-0.63186840	-0.51831437	0.15429805	-0.82369946	-0.25047275	-0.02709164	-0.15937545	0.81361323	-0.12005246	-0.66863700	-0.23822305	0.10595828	-0.65254956	-0.29167392	-0.33197708	-0.68349384	0.01145607	0.46473481
1955	19.54000000	0.93613758	0.18618332	0.02620501	-0.73021300	0.17604871	-0.58867783	-0.62806280	-0.52098777	0.15450942	-0.82423948	-0.25431300	-0.02533569	-0.15327685	0.81354266	-0.14915081	-0.66850324	-0.24526022	0.09894879	-0.65143211	-0.29040664	-0.32846432	-0.69909654	0.04217740	0.44835240
1956	19.55000000	0.93465041	0.18487289	0.03041415	-0.73026637	0.17158576	-0.59101521	-0.61985721	-0.51863826	0.16144678	-0.81879018	-0.26516125	-0.02508786	-0.14906525	0.80862940	-0.17087257	-0.67248626	-0.25166935	0.08639645	-0.65163365	-0.29061544	-0.32413139	-0.71387136	0.05942540	0.42619284
1957	19.56000000	0.93481500	0.18543270	0.02667284	-0.73187219	0.17083325	-0.58995715	-0.61649095	-0.52688025	0.16850393	-0.82096977	-0.27250315	-0.02483371	-0.14444642	0.80912556	-0.18785807	-0.67727735	-0.25852330	0.08067200	-0.64538210	-0.29029361	-0.32233634	-0.72672700	0.07442521	0.39740580
1958	19.57000000	0.93497359	0.18363825	0.02866616	-0.73320701	0.16697868	-0.59222112	-0.62303876	-0.52270056	0.16719334	-0.81673031	-0.27862197	-0.02455011	-0.14529105	0.80708325	-0.21119466	-0.67723473	-0.26901129	0.07912168	-0.64465431	-0.29148419	-0.31902665	-0.73771001	0.09097448	0.37524895
1959	19.58000000	0.93411532	0.18163751	0.02668727	-0.73561927	0.16327623	-0.59279307	-0.61793936	-0.52892375	0.16815242	-0.81098826	-0.28510215	-0.02459328	-0.15140217	0.79413211	-0.21825892	-0.68186923	-0.28079584	0.08279620	-0.64382854	-0.29576789	-0.32044104	-0.74544095	0.10221699	0.35904793
1960	19.59000000	0.93286620	0.18059196	0.03122050	-0.73434335	0.15560772	-0.58475217	-0.61466705	-0.53490816	0.16197233	-0.80985614	-0.29447154	-0.03272908	-0.15746164	0.79337902	-0.23316772	-0.68197485	-0.28589059	0.07514262	-0.63826474	-0.29616169	-0.31730561	-0.75980360	0.10618768	0.33644599
1961	19.60000000	0.93609545	0.17509933	0.03645320	-0.73848401	0.15441422	-0.58886649	-0.60957348	-0.54157167	0.15135926	-0.80867383	-0.30353396	-0.03802458	-0.17337805	0.78982860	-0.24363819	-0.68497788	-0.29092376	0.06930689	-0.63333026	-0.29410536	-0.32549619	-0.76778474	0.11509391	0.31698921
1962	19.61000000	0.93634161	0.18270662	0.03543966	-0.73699585	0.15195437	-0.58954868	-0.61358673	-0.54598373	0.15258109	-0.80353585	-0.30579362	-0.03547822	-0.18979195	0.78034877	-0.24575326	-0.69044400	-0.30222821	0.07191589	-0.62996934	-0.29912451	-0.32260074	-0.78506677	0.11039591	0.28153407
1963	19.62000000	0.93535522	0.18131295	0.03574845	-0.73569445	0.14647740	-0.59085781	-0.61500156	-0.54641178	0.14908345	-0.80043949	-0.31026812	-0.04769774	-0.20359515	0.77813944	-0.24843740	-0.69037691	-0.31169868	0.07348925	-0.62512958	-0.30398317	-0.32361429	-0.79807570	0.10277234	0.25148620
1964	19.63000000	0.93698339	0.17561716	0.03601216	-0.73874777	0.14227844	-0.59451779	-0.60722764	-0.55600237	0.14534843	-0.80032405	-0.32054462	-0.04650660	-0.22286655	0.77050943	-0.24701112	-0.69682738	-0.31628322	0.07529127	-0.62450565	-0.30010895	-0.33255131	-0.80672859	0.09625391	0.22200480
1965	19.64000000	0.93475415	0.17846207	0.04027346	-0.73846881	0.14523905	-0.59496753	-0.60628179	-0.56094605	0.14424748	-0.79680250	-0.32572345	-0.05595825	-0.24584498	0.76915921	-0.23166820	-0.69109463	-0.32778324	0.06832621	-0.62099442	-0.30300710	-0.33395846	-0.81781550	0.08688418	0.18861584
1966	19.65000000	0.93459576	0.17876923	0.04398330	-0.73585445	0.14302640	-0.59555922	-0.60823820	-0.55754038	0.14348447	-0.79395311	-0.33292000	-0.05603095	-0.26681242	0.76869116	-0.20577435	-0.69336195	-0.32842156	0.06801940	-0.62090217	-0.30972045	-0.33678960	-0.82409358	0.06662438	0.14942806
1967	19.66000000	0.93652063	0.17243932	0.03994619	-0.73568711	0.13629901	-0.59032525	-0.60150651	-0.56546300	0.14202376	-0.79187486	-0.34011220	-0.05237156	-0.28927134	0.76395835	-0.17341682	-0.69281518	-0.33129445	0.07082653	-0.61820489	-0.31613936	-0.34609555	-0.82944014	0.05567232	0.10815462
1968	19.67000000	0.94308130	0.17788224	0.04021774	-0.73072720	0.13432778	-0.59438312	-0.60050295	-0.56453109	0.14163695	-0.78740026	-0.34446818	-0.06397645	-0.32231723	0.76368152	-0.13617170	-0.69099505	-0.33711620	0.07203218	-0.61630001	-0.31256505	-0.34696646	-0.83578183	0.03711902	0.07086292
1969	19.68000000	0.94189274	0.17495357	0.04103049	-0.73735952	0.13614419	-0.60103108	-0.59736407	-0.56732254	0.14466273	-0.78401666	-0.35025773	-0.06143834	-0.35053829	0.75032978	-0.09081381	-0.69634428	-0.34580417	0.07398771	-0.61426750	-0.31831737	-0.35448228	-0.83482882	0.02438404	0.03799682
1970	19.69000000	0.93683820	0.17367034	0.04251898	-0.73809142	0.13634157	-0.59870101	-0.59323322	-0.56864859	0.14740313	-0.77665314	-0.35461542	-0.06998013	-0.37650676	0.74121916	-0.05386688	-0.69248938	-0.35118016	0.08007795	-0.61545531	-0.32004523	-0.36511937	-0.83696212	0.00644820	0.00584538
1971	19.70000000	0.94066626	0.17517899	0.04401283	-0.73182406	0.13424076	-0.60135871	-0.59198309	-0.57331645	0.14326219	-0.77986283	-0.36110659	-0.07468607	-0.41088379	0.72843245	-0.03058610	-0.69099877	-0.35101135	0.07790839	-0.61984109	-0.32374950	-0.36945657	-0.83296809	-0.02016456	-0.01788561
1972	19.71000000	0.94006806	0.17138665	0.04608462	-0.73387641	0.12975017	-0.59951495	-0.59126496	-0.57877959	0.15079444	-0.77145308	-0.36730042	-0.07768477	-0.44289193	0.70682991	-0.02417780	-0.69189418	-0.35191531	0.07837477	-0.61974210	-0.33412878	-0.37744045	-0.82390975	-0.03339112	-0.05296377
1973	19.72000000	0.93417766	0.17677511	0.04307404	-0.73322748	0.13228901	-0.59972348	-0.58968362	-0.57881943	0.14743764	-0.76607458	-0.37782378	-0.08439770	-0.46888839	0.68690281	-0.01228075	-0.69390277	-0.35986183	0.08046132	-0.61966657	-0.33218512	-0.38460292	-0.81923945	-0.04936547	-0.07758382
1974	19.73000000	0.93589532	0.17437070	0.04739022	-0.72820786	0.13195621	-0.60778519	-0.58910604	-0.58563281	0.14199035	-0.76103588	-0.39050153	-0.08644186	-0.49577195	0.66228461	-0.00563027	-0.69128456	-0.36224165	0.07775591	-0.62581472	-0.33817689	-0.39054484	-0.81470987	-0.06828140	-0.10216907
1975	19.74000000	0.93724390	0.17371862	0.04711420	-0.72704272	0.13228244	-0.60926943	-0.58256167	-0.58295228	0.14391927	-0.75485818	-0.39651343	-0.08809307	-0.53060532	0.64293403	-0.00930205	-0.68584336	-0.36412734	0.08128043	-0.63054211	-0.34862877	-0.39084755	-0.80649919	-0.08516930	-0.14050005
1976	19.75000000	0.93796424	0.17358852	0.04579403	-0.72127832	0.13133470	-0.60914837	-0.57673658	-0.58704388	0.14914660	-0.75046166	-0.40420936	-0.09382695	-0.55721870	0.61319908	-0.00991859	-0.69151066	-0.36104345	0.07974927	-0.63886206	-0.34942591	-0.39916103	-0.79481516	-0.09673903	-0.16612153
1977	19.76000000	0.93845564	0.17604036	0.04264910	-0.72257239	0.13026923	-0.61060192	-0.57892019	-0.59291743	0.14764975	-0.74721636	-0.41165669	-0.09674998	-0.58270808	0.58857829	-0.01273787	-0.68856849	-0.36274527	0.08504510	-0.64024464	-0.35669827	-0.40544168	-0.79292461	-0.11010136	-0.18925180
1978	19.77000000	0.93396318	0.17199073	0.05013416	-0.72476797	0.13228881	-0.60640237	-0.57529390	-0.59250687	0.14454873	-0.74689699	-0.42099514	-0.10175291	-0.60694894	0.56230477	-0.01292246	-0.67914870	-0.36028534	0.08557047	-0.64320078	-0.36368104	-0.41207226	-0.78272728	-0.11585860	-0.21722277
1979	19.78000000	0.93339377	0.17162289	0.05647529	-0.72697699	0.13230197	-0.61341231	-0.57177705	-0.59351278	0.14918310	-0.73957598	-0.42770856	-0.10144645	-0.63294482	0.53184700	-0.01348683	-0.68964621	-0.36098361	0.08772507	-0.65166555	-0.36654005	-0.42195783	-0.77066362	-0.12521671	-0.24732865
1980	19.79000000	0.93646566	0.17110616	0.05163052	-0.72430052	0.13092401	-0.61136772	-0.56931176	-0.60105411	0.14184615	-0.73103023	-0.43835184	-0.09827493	-0.65982769	0.50124961	-0.01307074	-0.68135931	-0.35579103	0.09310381	-0.65576261	-0.37714539	-0.42132579	-0.76317467	-0.13248059	-0.27762188
1981	19.80000000	0.93583478	0.17012016	0.05090695	-0.71984827	0.13206385	-0.60979276	-0.56418544	-0.60336116	0.14631920	-0.72765101	-0.44972830	-0.09525067	-0.68157265	0.46816187	-0.00702787	-0.67965067	-0.34503735	0.09289165	-0.66663144	-0.37565456	-0.42707531	-0.75114875	-0.14086571	-0.30478101
1982	19.81000000	0.93496103	0.16387508	0.05661014	-0.72203495	0.13889402	-0.61057089	-0.56165520	-0.61013903	0.15318446	-0.71890315	-0.45988219	-0.10228583	-0.69441837	0.44090401	0.00525487	-0.68594091	-0.33964407	0.10004729	-0.66854133	-0.38037100	-0.43221648	-0.73877403	-0.15273083	-0.33845143
1983	19.82000000	0.93850342	0.16957101	0.05733181	-0.71953381	0.13534615	-0.61464207	-0.55909221	-0.61651055	0.14912802	-0.71607595	-0.46355673	-0.09993248	-0.71057038	0.41223403	0.02063352	-0.68511783	-0.33130452	0.10606292	-0.67925047	-0.38739372	-0.43352841	-0.72115563	-0.16319811	-0.36832283
1984	19.83000000	0.93221760	0.16969122	0.05969880	-0.72047530	0.13796737	-0.61496688	-0.55159309	-0.62162668	0.14599983	-0.71278925	-0.47106531	-0.10588773	-0.72410399	0.38860560	0.03020853	-0.68583838	-0.32231565	0.10807227	-0.68996238	-0.38935684	-0.43295662	-0.69988098	-0.18071990	-0.39259007
1985	19.84000000	0.93349288	0.16785770	0.05979423	-0.72360887	0.13877648	-0.60745429	-0.54905009	-0.62322967	0.14725981	-0.70553302	-0.47819923	-0.10774862	-0.74053317	0.35843040	0.03902317	-0.68461488	-0.32138298	0.11506418	-0.69623349	-0.39440279	-0.43003484	-0.67982677	-0.19179121	-0.42704105
1986	19.85000000	0.93720390	0.16888518	0.06433822	-0.72273786	0.13447522	-0.61051378	-0.54257836	-0.62633240	0.14846318	-0.70043168	-0.48164214	-0.10551250	-0.74824144	0.33458224	0.05605241	-0.68014125	-0.31820711	0.11245916	-0.70376629	-0.39729310	-0.43003314	-0.66196483	-0.20409588	-0.45312899
1987	19.86000000	0.93730629	0.17052184	0.05947611	-0.72189943	0.13899122	-0.61089743	-0.53416820	-0.63382734	0.14609960	-0.69869882	-0.48703264	-0.11020281	-0.75659218	0.30735617	0.06324965	-0.68003698	-0.31374180	0.11585492	-0.70717445	-0.40119571	-0.43298551	-0.64219659	-0.21783869	-0.47151233
